HIERARCHY
ROOT Hips
{
	OFFSET -3.958830 18.904000 13.208200
	CHANNELS 6 Xposition Yposition Zposition Zrotation Yrotation Xrotation 
	JOINT LHipJoint
	{
		OFFSET 0.000000 0.000000 0.000000
		CHANNELS 3 Zrotation Yrotation Xrotation
		JOINT LeftUpLeg
		{
			OFFSET 1.800000 -1.400000 0.085000
			CHANNELS 3 Zrotation Yrotation Xrotation
			JOINT LeftLeg
			{
				OFFSET 2.215000 -6.000000 0.000000
				CHANNELS 3 Zrotation Yrotation Xrotation
				JOINT LeftFoot
				{
					OFFSET 2.500000 -6.900000 0.000000
					CHANNELS 3 Zrotation Yrotation Xrotation
					JOINT LeftToeBase
					{
						OFFSET 0.200000 -0.500000 1.950000
						CHANNELS 3 Zrotation Yrotation Xrotation
						End Site
						{
							OFFSET 0.000000 0.000000 0.000000
						}
					}
				}
			}
		}
	}
	JOINT RHipJoint
	{
		OFFSET 0.000000 0.000000 0.000000
		CHANNELS 3 Zrotation Yrotation Xrotation
		JOINT RightUpLeg
		{
			OFFSET -1.800000 -1.400000 0.085000
			CHANNELS 3 Zrotation Yrotation Xrotation
			JOINT RightLeg
			{
				OFFSET -2.215000 -6.000000 0.000000
				CHANNELS 3 Zrotation Yrotation Xrotation
				JOINT RightFoot
				{
					OFFSET -2.500000 -6.900000 0.000000
					CHANNELS 3 Zrotation Yrotation Xrotation
					JOINT RightToeBase
					{
						OFFSET -0.200000 -0.500000 1.950000
						CHANNELS 3 Zrotation Yrotation Xrotation
						End Site
						{
							OFFSET 0.000000 0.000000 0.000000
						}
					}
				}
			}
		}
	}
	JOINT LowerBack
	{
		OFFSET 0.000000 0.000000 0.000000
		CHANNELS 3 Zrotation Yrotation Xrotation
		JOINT Spine
		{
			OFFSET -0.087000 1.940000 -0.288900
			CHANNELS 3 Zrotation Yrotation Xrotation
			JOINT Spine1
			{
				OFFSET 0.000000 1.950000 0.060000
				CHANNELS 3 Zrotation Yrotation Xrotation
				JOINT Neck
				{
					OFFSET 0.000000 0.000000 0.000000
					CHANNELS 3 Zrotation Yrotation Xrotation
					JOINT Neck1
					{
						OFFSET 0.000000 1.600000 0.340000
						CHANNELS 3 Zrotation Yrotation Xrotation
						JOINT Head
						{
							OFFSET 0.000000 1.667000 -0.240000
							CHANNELS 3 Zrotation Yrotation Xrotation
							End Site
							{
								OFFSET 0.000000 0.000000 0.000000
							}
						}
					}
				}
				JOINT LeftShoulder
				{
					OFFSET 0.000000 0.000000 0.000000
					CHANNELS 3 Zrotation Yrotation Xrotation
					JOINT LeftArm
					{
						OFFSET 2.700000 1.550000 -0.730000
						CHANNELS 3 Zrotation Yrotation Xrotation
						JOINT LeftForeArm
						{
							OFFSET 5.450000 0.000000 0.000000
							CHANNELS 3 Zrotation Yrotation Xrotation
							JOINT LeftHand
							{
								OFFSET 3.450000 0.000000 0.000000
								CHANNELS 3 Zrotation Yrotation Xrotation
								JOINT LeftHandIndex1
								{
									OFFSET 0.750000 0.000000 0.000000
									CHANNELS 3 Zrotation Yrotation Xrotation
									End Site
									{
										OFFSET 0.000000 0.000000 0.000000
									}
								}
							}
						}
					}
				}
				JOINT RightShoulder
				{
					OFFSET 0.000000 0.000000 0.000000
					CHANNELS 3 Zrotation Yrotation Xrotation
					JOINT RightArm
					{
						OFFSET -2.700000 1.550000 -0.730000
						CHANNELS 3 Zrotation Yrotation Xrotation
						JOINT RightForeArm
						{
							OFFSET -5.450000 0.000000 0.000000
							CHANNELS 3 Zrotation Yrotation Xrotation
							JOINT RightHand
							{
								OFFSET -3.450000 0.000000 0.000000
								CHANNELS 3 Zrotation Yrotation Xrotation
								JOINT RightHandIndex1
								{
									OFFSET -0.750000 0.000000 0.000000
									CHANNELS 3 Zrotation Yrotation Xrotation
									End Site
									{
										OFFSET 0.000000 0.000000 0.000000
									}
								}
							}
						}
					}
				}
			}
		}
	}
}
MOTION
Frames: 13
Frame Time: 0.016667
-0.838930 17.517140 -3.036910 11.983829 14.391380 -13.089812 -15.959037 10.494845 7.479708 -31.612524 -23.413276 -72.521914 9.870702 3.081698 51.507160 0.397982 7.416983 1.711128 0.270080 0.018480 0.211590 17.895655 -9.028055 2.055959 -17.154950 2.999150 5.665503 13.213943 -6.609426 7.194549 -0.809326 -4.764771 2.672890 -0.193520 -0.180060 0.212780 -2.055866 -2.550104 -9.516412 2.541717 12.898250 54.971264 -0.030167 15.474521 4.859988 5.014610 -1.315771 -17.300154 -2.343996 -5.503333 60.079822 6.835450 -10.535210 -24.522310 -28.914701 -17.945263 7.874261 -50.665813 14.050096 -17.204157 -22.443354 -25.793905 -0.058471 -3.069598 2.985935 0.801490 -0.413970 0.387750 0.010610 19.438421 33.278597 13.070415 29.683357 13.322730 -31.448752 -104.202526 45.071012 -63.590938 2.630767 -0.681654 0.052390 0.158370 0.118330 -0.121710 
-0.846230 17.522890 -3.037460 12.472899 14.252242 -13.386165 -15.972882 10.492586 7.492352 -31.839130 -23.674247 -73.180051 11.229582 2.574625 51.890349 0.425888 7.494981 1.691455 0.274880 0.024420 0.200790 17.888582 -8.980341 2.037605 -17.799664 3.180036 5.972846 13.459327 -6.707589 7.331051 -0.819026 -4.850232 2.643344 -0.192360 -0.166390 0.221890 -2.016586 -2.633289 -9.513913 1.778370 13.272946 55.446033 0.399663 15.357655 5.475443 4.863917 -1.584352 -17.283978 -2.822751 -5.179413 59.132310 7.234400 -10.471410 -24.411040 -27.817781 -17.955891 8.105207 -50.861256 14.363304 -17.849916 -25.051148 -26.769140 0.303716 -3.067328 3.020942 0.790390 -0.406230 0.383460 0.026320 18.668637 33.659327 12.907287 28.634407 13.974667 -31.236583 -104.811510 44.219007 -63.619628 2.618707 -0.714430 0.059280 0.152980 0.111880 -0.110500 
-0.854490 17.544420 -3.035160 13.084718 13.727197 -14.341282 -15.982310 10.537517 7.449445 -31.666732 -23.684457 -73.971629 13.407667 1.879174 54.097308 0.536107 7.951408 1.550885 0.272530 0.030660 0.183120 17.882751 -8.932478 2.026189 -18.497054 3.291713 6.879380 13.442549 -6.797365 7.255520 -0.838616 -4.966934 2.606932 -0.192490 -0.153080 0.218330 -1.984846 -2.761875 -9.502806 0.986543 13.630238 56.628561 0.716809 15.267038 6.687660 4.791003 -2.210962 -17.448767 -3.997979 -4.520680 57.629393 7.883660 -10.372230 -24.786390 -25.832107 -18.019235 8.561692 -51.419740 15.056681 -19.274220 -29.461866 -29.562801 1.240047 -3.043086 3.075450 0.776290 -0.404520 0.375770 0.038750 16.861698 34.565562 12.705592 27.034961 15.144182 -31.054631 -106.599334 42.206477 -64.160770 2.600597 -0.759896 0.063190 0.153570 0.106310 -0.096200 
-0.865420 17.579440 -3.028730 13.588675 12.607800 -15.553411 -15.994750 10.674468 7.333600 -31.082281 -23.138388 -74.516456 16.372242 0.912019 57.611356 0.704334 8.718219 1.314011 0.269270 0.038800 0.172160 17.866771 -8.935447 1.974921 -18.904663 3.263326 7.531519 13.009941 -6.901344 7.756628 -0.838274 -5.037526 2.588246 -0.185060 -0.138200 0.209000 -1.939683 -2.907243 -9.442036 0.022598 14.278325 57.712131 1.141942 15.474922 7.929694 4.747509 -2.706822 -17.294898 -4.711949 -3.967501 55.593728 7.949990 -10.002000 -25.074690 -23.866399 -17.477727 8.791711 -51.498147 15.963678 -20.435864 -35.712785 -31.536980 2.525895 -3.037300 3.120819 0.754780 -0.395370 0.361250 0.045150 14.898661 34.983278 12.235889 25.217393 16.490720 -30.327175 -108.806500 39.937197 -65.122832 2.561918 -0.811355 0.060870 0.160630 0.102960 -0.086960 
-0.882380 17.631210 -3.018460 14.149252 10.903114 -16.758913 -16.004635 10.845410 7.141294 -29.671505 -22.079648 -74.852364 19.406529 -0.003743 63.324253 0.953449 9.969996 0.932648 0.274470 0.040800 0.172300 17.848954 -8.961481 1.919809 -19.372231 3.229882 7.957914 12.570745 -7.010435 8.306186 -0.838235 -5.105300 2.565838 -0.173100 -0.119430 0.213430 -1.899093 -3.007344 -9.353571 -1.332067 15.392794 58.247415 1.623139 16.033719 9.259231 4.571237 -2.719712 -16.944357 -4.432457 -3.645728 53.756335 8.147750 -9.462810 -25.266070 -21.757610 -16.705054 8.995004 -51.381431 16.872476 -21.250072 -42.290952 -33.115552 4.034192 -3.044009 3.163762 0.752880 -0.379140 0.348050 0.050620 12.927215 34.773464 11.599305 23.725225 17.979026 -29.038096 -111.214905 37.866595 -66.664726 2.493312 -0.861598 0.049020 0.166320 0.105790 -0.091370 
-0.886600 17.688630 -3.002320 14.703067 9.094877 -17.521198 -16.033879 10.995122 6.972197 -27.637215 -20.959105 -74.573788 21.466793 -0.385822 70.242460 1.262319 11.384146 0.520371 0.296160 0.064730 0.188270 17.823774 -8.954660 1.834127 -19.870850 3.119190 7.946846 12.124914 -7.079773 8.863749 -0.828425 -5.142595 2.545280 -0.149400 -0.109680 0.231180 -1.815946 -3.148563 -9.259720 -3.205111 16.679042 57.631072 2.608651 16.542259 10.498814 4.288923 -2.369864 -16.088913 -3.365413 -3.248190 51.628452 7.363700 -8.399690 -24.948290 -19.763235 -15.051383 9.020984 -51.130280 18.020821 -21.645151 -50.079805 -34.267258 6.004884 -3.063448 3.227280 0.736010 -0.352460 0.337720 0.053280 11.114713 33.251862 10.550151 22.516293 19.821534 -26.301577 -113.840912 36.485167 -69.543267 2.395406 -0.925052 0.051990 0.155330 0.101350 -0.097760 
-0.897810 17.752780 -2.983350 15.474195 7.617496 -17.650525 -16.087644 11.144864 6.843839 -25.564216 -19.912694 -73.349881 22.627798 0.105362 77.277909 1.528506 12.779276 0.141653 0.280460 0.034240 0.197330 17.784154 -8.919861 1.697155 -20.410569 2.881413 7.170008 11.516705 -7.101084 9.595035 -0.771228 -5.100225 2.553500 -0.127150 -0.064520 0.235460 -1.671864 -3.384848 -9.137817 -6.152663 18.321810 55.799736 4.371434 16.849499 11.634844 3.742064 -1.662748 -14.884353 -1.622667 -2.734897 49.176216 6.155900 -7.087500 -24.246480 -17.585257 -12.860666 8.913513 -50.437475 19.289743 -21.364322 -59.530637 -34.156355 8.102288 -3.137302 3.232966 0.734550 -0.301110 0.300630 0.037410 9.618635 30.710077 9.215103 21.747767 22.067849 -22.712241 -116.883592 34.878962 -72.780596 2.266383 -0.987229 0.003270 0.185020 0.134180 -0.125190 
-0.905040 17.830430 -2.972710 16.043475 6.335496 -17.396197 -16.133801 11.326390 6.682991 -23.426517 -18.430675 -70.679602 22.746943 1.648730 82.654652 1.696671 13.795982 -0.132679 0.261700 0.004040 0.214230 17.741024 -8.928939 1.555579 -20.778221 2.567513 5.654606 10.882737 -7.082947 10.573343 -0.699799 -4.992448 2.573505 -0.103380 -0.034950 0.245370 -1.533490 -3.588233 -8.976607 -8.886776 19.862878 53.631243 5.929283 17.387553 12.341348 3.449932 -0.155244 -13.798482 1.498799 -2.764679 47.036114 4.095570 -5.631470 -23.785800 -15.741639 -10.625241 8.334618 -48.380721 19.614544 -20.025120 -68.352630 -32.317814 9.439619 -3.229386 3.225836 0.744220 -0.248510 0.273410 0.008130 7.974331 27.406094 8.317907 22.527397 23.475595 -19.444058 -121.399130 32.649149 -77.400415 2.143808 -1.078215 -0.047520 0.208960 0.173680 -0.165010 
-0.913260 17.907820 -2.969000 16.416437 5.469390 -16.683430 -16.161034 11.567068 6.490254 -21.318366 -16.675378 -66.580546 21.721344 4.160083 85.514788 1.774757 14.349852 -0.290420 0.265630 -0.006410 0.254520 17.697732 -9.006161 1.417662 -20.858069 2.210109 3.244296 10.240384 -7.032905 12.160878 -0.626125 -4.806215 2.602228 -0.080670 -0.039660 0.264210 -1.425273 -3.776355 -8.778795 -11.713527 21.013015 51.005404 7.529617 17.518887 12.488152 3.110877 1.429048 -12.843608 4.516277 -2.688109 45.709275 2.154720 -4.187190 -23.464890 -14.126772 -8.592146 7.648341 -45.997284 19.387918 -18.535485 -75.902793 -29.486581 9.719242 -3.293965 3.246407 0.758300 -0.218350 0.268790 -0.019880 6.854591 23.793989 7.572541 24.513291 24.402390 -16.230816 -126.449162 30.898964 -83.016572 2.054046 -1.173668 -0.074730 0.206010 0.192290 -0.205580 
-0.905510 17.992190 -2.976170 15.653984 4.741752 -16.495482 -16.136727 11.899828 6.226737 -19.248615 -14.527559 -61.104465 20.099828 6.407392 85.629349 1.767302 14.457595 -0.326554 0.274790 -0.025660 0.304800 17.669866 -9.212179 1.350272 -19.833327 1.858540 0.776718 9.601098 -6.996074 14.518481 -0.578234 -4.605815 2.647867 -0.083110 -0.063820 0.284670 -1.425989 -3.847270 -8.614883 -12.287869 20.669258 50.224891 7.834405 17.291712 11.696212 3.135186 2.248710 -12.323820 5.979993 -2.565318 45.825242 0.048930 -3.354200 -23.590060 -13.236643 -7.057774 6.719231 -43.914365 18.742617 -17.667275 -80.292697 -25.298594 7.646406 -3.329911 3.238681 0.790420 -0.215020 0.282430 -0.041260 5.886434 20.997301 7.432080 27.413326 24.017608 -13.869685 -131.999459 28.490900 -88.495531 1.994747 -1.255664 -0.086710 0.198070 0.198860 -0.242170 
-0.881570 18.086780 -3.000800 14.004781 3.853378 -17.721414 -16.031832 12.470300 5.731815 -17.024518 -11.299426 -53.189035 17.925970 8.228891 82.655437 1.641381 14.053048 -0.225627 0.278420 -0.038210 0.325800 17.654186 -9.584550 1.409789 -18.043424 1.731671 -1.020778 8.814047 -7.003073 17.887851 -0.573876 -4.507542 2.677013 -0.085060 -0.085460 0.277990 -1.574091 -3.887350 -8.457705 -10.474551 18.696442 52.429550 6.367697 16.492050 10.534581 3.417185 1.588818 -11.983363 4.583871 -1.364956 46.891832 -1.348550 -3.125540 -24.983490 -13.077793 -5.967765 5.838551 -41.738122 18.648324 -17.677830 -84.596037 -21.818039 5.146805 -3.321814 3.201285 0.842580 -0.241260 0.305190 -0.047100 5.132687 19.638584 7.430622 29.887868 23.646973 -12.116941 -137.098430 26.257662 -93.872660 1.951166 -1.279734 -0.108260 0.227580 0.206930 -0.262700 
-0.838760 18.163000 -3.024300 11.421289 2.469148 -19.786030 -15.862147 13.224979 5.011804 -13.329260 -7.199388 -44.134789 14.458690 10.312021 77.551937 1.450910 13.317174 -0.037649 0.291390 -0.041040 0.348550 17.658822 -10.042914 1.600812 -15.183496 2.232958 -2.675227 7.816538 -6.953050 22.887194 -0.614807 -4.560871 2.651121 -0.091360 -0.119480 0.266510 -1.835299 -3.899668 -8.281430 -6.647088 15.490730 56.321494 3.896094 15.457807 8.718735 3.830831 -0.151996 -11.765894 1.166736 0.627008 48.526290 -2.200830 -3.415180 -26.839930 -12.939547 -4.635196 4.693802 -39.784276 18.272389 -17.883847 -87.520937 -17.625109 1.343230 -3.283971 3.160691 0.894980 -0.293040 0.338640 -0.049720 4.156386 18.799169 7.606857 32.645901 23.130706 -10.521492 -141.654802 24.157061 -98.797251 1.937539 -1.286708 -0.114280 0.256240 0.205620 -0.268870 
-0.759760 18.212760 -3.049480 7.343613 0.733931 -21.805298 -15.626310 13.852620 4.236420 -8.262611 -3.353398 -35.547982 10.901887 11.536544 70.875946 1.179479 12.287334 0.233061 0.300310 -0.045730 0.347890 17.747574 -10.402390 2.014968 -10.909935 4.047411 -4.736202 7.597693 -7.064773 29.680533 -0.729863 -4.957141 2.512236 -0.097410 -0.149090 0.244840 -2.283256 -3.685325 -8.173743 0.023466 10.004508 60.936204 -0.197175 13.491422 6.092283 4.621345 -2.692332 -11.842639 -3.636868 3.403601 50.385185 -2.841050 -4.055800 -28.323280 -13.262518 -3.466868 3.441969 -38.153240 17.715618 -18.015983 -88.086770 -13.214011 -3.008094 -3.242703 3.113057 0.941030 -0.349930 0.360500 -0.046670 2.977086 18.271692 7.949221 36.038455 22.852612 -8.616466 -145.413870 21.905565 -101.599055 1.928649 -1.288647 -0.119890 0.286500 0.210060 -0.265040 
